<svg width="166" height="61" viewBox="0 0 166 61" fill="none" xmlns="http://www.w3.org/2000/svg">
<g clip-path="url(#clip0_6657_26845)">
<path d="M166.001 56.0566C164.545 56.0566 163.089 56.0515 161.635 56.0618C161.417 56.0618 161.371 56.0028 161.371 55.7926C161.381 54.0288 161.381 52.2677 161.371 50.5039C161.371 50.2937 161.435 50.2578 161.627 50.2578C162.981 50.2655 164.335 50.2629 165.686 50.2578C165.852 50.2578 165.945 50.2681 165.939 50.4808C165.934 50.6808 165.883 50.7398 165.68 50.7398C164.522 50.7321 163.363 50.7423 162.207 50.7295C161.956 50.7269 161.899 50.8064 161.907 51.0397C161.925 51.5627 161.92 52.0857 161.907 52.6086C161.902 52.7983 161.963 52.8496 162.15 52.8496C163.176 52.8419 164.201 52.847 165.227 52.8445C165.388 52.8445 165.532 52.806 165.532 53.0752C165.532 53.3392 165.386 53.288 165.24 53.288C164.214 53.288 163.189 53.2931 162.163 53.2854C161.974 53.2854 161.899 53.3187 161.904 53.5315C161.92 54.1263 161.917 54.721 161.904 55.3158C161.899 55.5132 161.95 55.5721 162.153 55.5696C163.435 55.5593 164.717 55.5644 165.996 55.5644V56.0566H166.001Z" fill="#080808"/>
<path d="M54.0334 34.3052C54.177 34.277 54.2462 34.1513 54.3385 34.0591C65.5952 22.8075 76.8519 11.5533 88.101 0.291475C88.3291 0.0633156 88.4317 0.0940786 88.6393 0.301729C94.251 5.92368 99.8704 11.5379 105.487 17.1548C105.572 17.2394 105.636 17.3547 105.767 17.3829C105.772 17.4726 105.836 17.5265 105.895 17.5829C106.759 18.4468 107.623 19.3107 108.487 20.1747C108.558 20.2464 108.628 20.3233 108.74 20.3285C108.735 20.4643 108.853 20.5182 108.928 20.5925C109.94 21.6103 110.958 22.6229 111.971 23.6406C112.045 23.7175 112.153 23.7739 112.178 23.9047C111.619 23.979 111.066 24.0457 110.512 24.1226C109.415 24.279 108.343 24.5481 107.305 24.9327C107.087 25.0122 106.961 24.9711 106.802 24.8122C100.747 18.7493 94.6842 12.6915 88.6291 6.62354C88.4009 6.39538 88.3009 6.42358 88.0907 6.63379C74.8882 19.844 61.6781 33.0516 48.4705 46.2566C48.3987 46.3284 48.3218 46.3925 48.2449 46.4617C47.6757 45.3106 47.3681 44.0955 47.322 42.8111C47.2989 42.1959 47.3168 41.5832 47.3886 40.973C48.5807 39.8348 49.742 38.6633 50.8879 37.4789C50.9212 37.4558 50.9597 37.4379 50.9879 37.4097C51.9672 36.4329 52.9439 35.4562 53.9206 34.4795C53.9719 34.4282 54.0232 34.3795 54.0309 34.3L54.0334 34.3052Z" fill="#015387"/>
<path d="M54.0327 34.3054C54.025 34.3823 53.9738 34.4336 53.9225 34.4849C52.9458 35.4616 51.9665 36.4383 50.9898 37.4151C50.9616 37.4433 50.9231 37.4612 50.8898 37.4843C50.3796 36.9844 49.8669 36.4845 49.3568 35.9846C49.3593 35.9128 49.3286 35.8718 49.2516 35.8795C49.185 35.8026 49.1209 35.7231 49.0491 35.6513C46.0625 32.6647 43.0734 29.6807 40.0945 26.689C39.9048 26.4993 39.8176 26.4993 39.6279 26.689C28.6071 37.7176 17.5811 48.741 6.56022 59.767C6.3859 59.9413 6.21926 60.0131 5.97316 60.0105C4.09661 60.0003 2.22007 60.0054 0.346084 60.0054H0.0538353L0 59.9234C0.087162 59.8567 0.182015 59.8003 0.256359 59.7234C13.3845 46.6004 26.5126 33.4748 39.6382 20.3467C39.7792 20.2057 39.8612 20.116 40.0586 20.3134C44.691 24.9586 49.3311 29.5961 53.9712 34.2336C53.9943 34.2567 54.0122 34.2798 54.0327 34.3054Z" fill="#123C63"/>
<path d="M49.2518 35.8804C49.3287 35.8727 49.3595 35.9112 49.3569 35.9855C48.3545 37.5134 47.6675 39.1669 47.3906 40.9794C47.3188 41.5895 47.3035 42.2022 47.324 42.8175C47.3701 44.0993 47.6777 45.317 48.2469 46.468C48.634 47.3704 49.1877 48.1677 49.8107 48.9163C51.4026 50.8236 53.3792 52.254 55.53 53.4589C58.8806 55.338 62.4722 56.6121 66.151 57.6632C69.4785 58.6143 72.8547 59.3321 76.2592 59.9371C76.2951 59.9448 76.331 59.9551 76.3643 60.0063C76.2541 60.0063 76.1438 60.0063 76.0336 60.0063C65.5178 60.0063 55.0019 60.0063 44.4861 60.0115C44.2451 60.0115 44.0939 59.932 43.9375 59.7577C42.4711 58.1247 41.4098 56.2635 40.7561 54.169C40.7407 54.1229 40.7125 54.0793 40.6894 54.0357C40.5843 53.4436 40.4151 52.8667 40.3382 52.2694C40.2126 51.2619 40.2126 50.2544 40.2869 49.2418C40.3177 48.824 40.4433 48.4189 40.4279 47.9985C40.4279 47.9985 40.4254 48.0036 40.4254 48.0011C40.4459 47.9805 40.4689 47.9575 40.4894 47.937C41.1509 44.8786 42.73 42.315 44.7655 39.9975C46.0601 38.5235 47.506 37.2109 49.039 35.9881C49.1005 35.9394 49.1544 35.8676 49.2492 35.8804H49.2518Z" fill="#939598"/>
<path d="M108.741 20.332C108.629 20.3243 108.559 20.2499 108.488 20.1782C107.624 19.3142 106.76 18.4503 105.896 17.5864C105.839 17.53 105.775 17.4761 105.768 17.3864C107.565 15.3663 109.362 13.3462 111.161 11.3261C114.433 7.65503 117.704 3.98654 120.97 0.310353C121.136 0.123211 121.208 0.100139 121.39 0.302663C126.82 6.39887 132.344 12.4079 137.82 18.4606C139.64 20.473 141.468 22.4803 143.291 24.4901C143.352 24.5568 143.411 24.6285 143.475 24.7003C143.386 24.7952 143.278 24.7465 143.186 24.7465C141.514 24.749 139.843 24.7465 138.174 24.7542C137.959 24.7542 137.82 24.6901 137.677 24.5311C133.659 20.1141 129.637 15.6996 125.617 11.2851C124.231 9.7623 122.846 8.24209 121.462 6.71932C121.372 6.62191 121.282 6.52705 121.182 6.42195C120.095 7.64221 119.019 8.84966 117.942 10.0571C114.925 13.4436 111.905 16.8327 108.885 20.2192C108.846 20.2628 108.79 20.2935 108.744 20.3294L108.741 20.332Z" fill="#123C63"/>
<path d="M159.725 43.6436V43.2411C159.725 38.137 159.728 33.0329 159.717 27.9288C159.717 27.5956 159.815 27.5289 160.122 27.5417C160.697 27.5674 161.271 27.5622 161.845 27.5417C162.107 27.5315 162.189 27.5904 162.186 27.8724C162.173 30.8949 162.178 33.9199 162.178 36.9424C162.178 40.3135 162.176 43.6872 162.186 47.0583C162.186 47.3275 162.127 47.4018 161.853 47.3916C161.237 47.3685 160.622 47.3788 160.007 47.389C159.82 47.3916 159.687 47.3454 159.558 47.1993C156.646 43.8974 153.726 40.6032 150.809 37.3039C149.173 35.4555 147.54 33.6072 145.905 31.7588C145.874 31.7229 145.841 31.6896 145.764 31.6076V31.9844C145.764 37.0065 145.761 42.0286 145.771 47.0506C145.771 47.3377 145.694 47.4018 145.423 47.3916C144.807 47.3711 144.192 47.3711 143.577 47.3916C143.338 47.3993 143.297 47.3275 143.297 47.1045C143.305 42.8515 143.303 38.5985 143.303 34.3429C143.303 32.169 143.308 29.9976 143.295 27.8237C143.295 27.5853 143.359 27.5366 143.585 27.5392C144.282 27.5545 144.979 27.5494 145.676 27.5392C145.835 27.5392 145.938 27.5904 146.041 27.7109C150.324 32.6997 154.608 37.6858 158.894 42.672C159.156 42.9745 159.415 43.277 159.728 43.6385L159.725 43.6436Z" fill="#010101"/>
<path d="M120.435 42.536C120.904 43.0693 121.343 43.5948 121.815 44.0921C122.012 44.3023 121.966 44.4254 121.799 44.61C120.999 45.5021 120.043 46.1686 118.959 46.666C116.805 47.6555 114.534 47.9452 112.191 47.776C110.268 47.6376 108.44 47.1582 106.769 46.1738C104.016 44.551 102.467 42.1284 102.077 38.9701C101.829 36.9756 102.013 35.0222 102.824 33.1635C103.903 30.6846 105.782 29.031 108.297 28.1466C111.817 26.9084 115.372 26.8238 118.905 28.1287C120.069 28.5593 121.117 29.1874 121.938 30.1488C122.091 30.3282 122.109 30.4461 121.945 30.6333C121.507 31.1332 121.092 31.6562 120.666 32.1663C120.612 32.2304 120.574 32.374 120.448 32.2125C119.323 30.7589 117.756 30.0821 116.011 29.7694C113.755 29.3669 111.522 29.4669 109.358 30.2821C106.374 31.4075 104.592 33.9839 104.539 37.173C104.505 39.1162 104.949 40.9081 106.195 42.4412C107.341 43.8537 108.845 44.7023 110.594 45.1176C112.975 45.6815 115.326 45.5918 117.613 44.6766C118.687 44.2459 119.597 43.582 120.312 42.6642C120.343 42.6258 120.382 42.5899 120.435 42.5335V42.536Z" fill="#010101"/>
<path d="M68.3379 47.3859C68.9839 46.0913 69.6069 44.8403 70.2298 43.5892C72.7268 38.5774 75.2211 33.5682 77.7181 28.5564C77.8821 28.2282 77.9744 27.7924 78.2385 27.6053C78.5179 27.4079 78.9717 27.5771 79.3459 27.5437C79.6305 27.5181 79.7664 27.6232 79.8945 27.8847C81.5275 31.2481 83.1785 34.6013 84.8218 37.957C86.3343 41.0487 87.8442 44.1404 89.3567 47.2347C89.3747 47.2705 89.3901 47.3039 89.4285 47.3859C88.8081 47.3859 88.2211 47.3859 87.634 47.3859C87.3084 47.3859 86.9111 47.4859 86.6752 47.3372C86.4394 47.1885 86.3599 46.786 86.2189 46.4912C83.8271 41.4666 81.4378 36.4394 79.0306 31.3763C78.7512 31.9403 78.482 32.4761 78.2205 33.017C76.0517 37.4597 73.8855 41.9024 71.7193 46.3451C71.6116 46.5656 71.4732 46.7758 71.4014 47.0065C71.3014 47.3295 71.1143 47.4064 70.7938 47.3962C69.994 47.3705 69.1941 47.3885 68.3404 47.3885L68.3379 47.3859Z" fill="#010101"/>
<path d="M121.491 47.383C122.137 46.0859 122.763 44.8348 123.386 43.5838C125.885 38.5643 128.385 33.5448 130.887 28.5227C131.046 28.2023 131.136 27.7793 131.395 27.5998C131.669 27.4101 132.11 27.5793 132.471 27.5383C132.789 27.5024 132.93 27.6332 133.063 27.91C134.681 31.2453 136.317 34.5728 137.947 37.9029C139.465 41.0023 140.982 44.1042 142.497 47.2062C142.518 47.2497 142.536 47.2959 142.569 47.3805C141.831 47.3805 141.118 47.3395 140.411 47.3959C139.913 47.4343 139.716 47.2344 139.519 46.8165C137.088 41.6739 134.64 36.5416 132.179 31.3734C131.905 31.9272 131.641 32.4553 131.382 32.9859C129.072 37.7234 126.762 42.461 124.455 47.1985C124.396 47.319 124.337 47.3882 124.183 47.3856C123.301 47.3779 122.419 47.3805 121.486 47.3805L121.491 47.383Z" fill="#010101"/>
<path d="M102.782 47.3849H102.416C98.3577 47.3849 94.2995 47.3849 90.2414 47.39C89.9876 47.39 89.9004 47.3516 89.9004 47.0644C89.9106 40.6708 89.9106 34.2773 89.9004 27.8837C89.9004 27.6273 89.9414 27.5273 90.2285 27.5401C90.8515 27.5658 91.4796 27.5607 92.1025 27.5401C92.3512 27.5325 92.4255 27.5889 92.4255 27.8529C92.4127 30.0038 92.4178 32.1572 92.4178 34.308C92.4178 37.7817 92.423 41.2553 92.4101 44.729C92.4101 45.011 92.4922 45.052 92.7485 45.052C95.3403 45.0418 97.9347 45.0494 100.526 45.0418C100.724 45.0418 100.839 45.0956 100.949 45.2622C101.457 46.0236 102.057 46.7081 102.78 47.3849H102.782Z" fill="#010101"/>
<path d="M40.4329 47.9961C40.4483 48.4165 40.3227 48.8216 40.2919 49.2394C40.215 50.2521 40.215 51.257 40.3432 52.267C40.4175 52.8643 40.5893 53.4412 40.6944 54.0333C38.7461 55.9842 36.7977 57.9326 34.852 59.8835C34.7751 59.9604 34.7007 60.0065 34.5879 60.0065C32.5499 60.0039 30.5118 60.0065 28.4763 60.0065C28.4481 59.8988 28.5327 59.8706 28.5763 59.8271C32.4807 55.9201 36.3876 52.0158 40.2945 48.1115C40.3355 48.0704 40.3893 48.0371 40.4355 47.9987L40.4329 47.9961Z" fill="#015387"/>
<path d="M64.5176 53.1433C64.5176 52.2614 64.5227 51.3795 64.5125 50.5002C64.5125 50.3105 64.5612 50.2592 64.7509 50.2618C65.6532 50.2721 66.5556 50.2541 67.4555 50.2695C68.8629 50.2951 69.8421 51.0078 70.1754 52.2255C70.5497 53.5817 70.0857 54.907 68.9859 55.5966C68.4988 55.9017 67.9579 56.053 67.3837 56.0581C66.5121 56.0683 65.6404 56.053 64.7714 56.0658C64.5432 56.0683 64.5073 55.9914 64.5099 55.7863C64.5201 54.9045 64.515 54.0226 64.515 53.1433H64.5176ZM65.0534 53.1689C65.0534 53.8867 65.0611 54.602 65.0482 55.3198C65.0431 55.5274 65.1098 55.5736 65.3072 55.571C65.984 55.5582 66.6582 55.571 67.335 55.5633C67.781 55.5582 68.2066 55.4479 68.5962 55.23C69.514 54.725 69.937 53.6688 69.6832 52.5306C69.4499 51.4821 68.6885 50.8284 67.5683 50.7745C66.8017 50.7386 66.0327 50.7668 65.2636 50.754C65.0764 50.7515 65.0482 50.8232 65.0508 50.9873C65.0585 51.7154 65.0534 52.4409 65.0534 53.1689Z" fill="#080808"/>
<path d="M77.4607 51.1059C77.4607 52.7132 77.4581 54.2386 77.4658 55.7665C77.4658 55.9767 77.4427 56.069 77.1941 56.069C76.9403 56.069 76.9223 55.9716 76.9223 55.7665C76.93 54.0642 76.9223 52.3646 76.93 50.6624C76.93 50.5342 76.8352 50.3163 76.9967 50.2855C77.2043 50.2445 77.4479 50.183 77.6427 50.4137C78.3631 51.2648 79.1014 52.1031 79.832 52.9465C80.4832 53.6951 81.1343 54.4462 81.7931 55.2025C81.888 55.1128 81.8419 55.0051 81.8419 54.9154C81.8444 53.4592 81.8495 52.0057 81.8393 50.5496C81.8393 50.3291 81.8777 50.2548 82.1187 50.2522C82.3699 50.2522 82.3648 50.3676 82.3648 50.5496C82.3597 52.2723 82.3648 53.9925 82.3597 55.7152C82.3597 55.828 82.4315 56.0126 82.2956 56.0382C82.1136 56.0715 81.9034 56.1331 81.7316 55.9357C81.0138 55.1076 80.2832 54.2924 79.5551 53.4721C78.8732 52.7004 78.1887 51.9313 77.4607 51.1059Z" fill="#080808"/>
<path d="M119.704 56.1959C118.604 56.1908 117.638 55.8652 116.971 54.9449C115.666 53.1452 116.761 50.5765 118.976 50.2202C120.119 50.0356 121.196 50.2048 122.065 51.0252C122.97 51.8763 123.193 52.953 122.865 54.1245C122.542 55.2781 121.688 55.8729 120.56 56.1216C120.278 56.1831 119.994 56.2062 119.704 56.1959ZM119.837 55.7114C119.95 55.7037 120.063 55.696 120.173 55.6858C121.845 55.5166 122.85 53.9835 122.309 52.3941C121.932 51.2866 121.081 50.7611 119.963 50.6739C117.897 50.5099 116.707 52.0429 117.025 53.7605C117.248 54.9654 118.451 55.8062 119.837 55.7114Z" fill="#080808"/>
<path d="M112.314 56.1961C111.099 56.1756 110.053 55.7911 109.419 54.6836C108.563 53.1865 109.104 50.6383 111.619 50.2153C112.693 50.0358 113.713 50.1999 114.562 50.9254C115.526 51.7509 115.803 52.8276 115.5 54.035C115.2 55.2399 114.334 55.8577 113.17 56.1192C112.888 56.1833 112.603 56.1987 112.314 56.1961ZM112.355 55.7193C112.465 55.7116 112.619 55.709 112.773 55.6885C113.711 55.5578 114.485 55.1553 114.857 54.2401C115.236 53.3095 115.136 52.3943 114.488 51.6124C113.79 50.7741 112.844 50.5614 111.798 50.7024C110.229 50.9151 109.25 52.402 109.681 53.9248C109.994 55.0323 110.999 55.7167 112.357 55.7167L112.355 55.7193Z" fill="#080808"/>
<path d="M138.929 53.8056C139.654 54.5644 140.347 55.2873 141.064 56.0384C140.7 56.082 140.413 56.1 140.149 55.7846C139.647 55.1925 139.091 54.6464 138.562 54.0747C138.46 53.9645 138.362 53.9004 138.198 53.903C137.532 53.9132 136.865 53.9158 136.201 53.903C135.999 53.8978 135.971 53.9671 135.973 54.1465C135.983 54.7208 135.968 55.295 135.983 55.8667C135.989 56.0743 135.883 56.0795 135.742 56.0589C135.617 56.041 135.427 56.1538 135.43 55.8718C135.437 54.0696 135.437 52.2674 135.43 50.4626C135.43 50.255 135.532 50.2627 135.676 50.2627C136.67 50.2652 137.663 50.2576 138.657 50.2652C139.708 50.2755 140.342 50.7985 140.459 51.7316C140.59 52.7699 140.098 53.4979 139.085 53.7697C139.047 53.7799 139.008 53.785 138.934 53.8004L138.929 53.8056ZM137.445 50.7626C137.014 50.7626 136.583 50.7651 136.155 50.76C136.03 50.76 135.976 50.7857 135.976 50.9266C135.981 51.7162 135.978 52.5033 135.976 53.2928C135.976 53.3903 135.976 53.4723 136.114 53.4697C137.004 53.4441 137.896 53.5338 138.783 53.421C139.506 53.3287 139.998 52.7288 139.96 52.0418C139.916 51.2497 139.452 50.7959 138.639 50.7677C138.239 50.7549 137.839 50.7677 137.442 50.7677L137.445 50.7626Z" fill="#080808"/>
<path d="M124.028 53.1626C124.028 52.2807 124.033 51.4014 124.025 50.5195C124.025 50.3375 124.043 50.2529 124.264 50.258C125.176 50.2734 126.087 50.2657 126.999 50.2632C127.227 50.2632 127.448 50.2939 127.666 50.3503C128.514 50.5657 128.945 51.2707 128.868 52.2986C128.786 53.4036 128.189 53.9906 127.076 54.0342C126.33 54.0624 125.582 54.0598 124.833 54.0547C124.636 54.0547 124.571 54.1034 124.577 54.3059C124.592 54.8187 124.564 55.3314 124.589 55.8415C124.602 56.1081 124.443 56.0517 124.297 56.0569C124.141 56.062 124.013 56.0876 124.018 55.8364C124.036 54.9443 124.025 54.0547 124.025 53.1626H124.028ZM124.584 52.1628C124.584 52.573 124.584 52.9806 124.584 53.3907C124.584 53.4984 124.574 53.5933 124.736 53.5881C125.574 53.5625 126.415 53.6471 127.248 53.5317C127.694 53.4702 128.055 53.2574 128.243 52.8165C128.709 51.7167 128.114 50.7784 126.927 50.7631C126.222 50.7528 125.515 50.7708 124.81 50.7554C124.61 50.7502 124.574 50.8195 124.579 50.9989C124.592 51.386 124.584 51.7757 124.584 52.1653V52.1628Z" fill="#080808"/>
<path d="M129.816 53.1561C129.816 52.2742 129.823 51.3949 129.811 50.513C129.808 50.3105 129.864 50.2592 130.064 50.2618C131.408 50.2721 132.749 50.2695 134.092 50.2618C134.284 50.2618 134.353 50.2977 134.358 50.5105C134.364 50.7515 134.238 50.7412 134.071 50.7412C132.923 50.7386 131.777 50.7463 130.628 50.7335C130.387 50.7309 130.313 50.795 130.323 51.0386C130.344 51.541 130.346 52.0435 130.323 52.5434C130.311 52.81 130.408 52.8587 130.651 52.8562C131.656 52.8433 132.659 52.851 133.664 52.851C133.825 52.851 133.971 52.8126 133.971 53.0818C133.971 53.3458 133.82 53.292 133.677 53.292C132.672 53.292 131.667 53.3048 130.664 53.2843C130.369 53.2792 130.313 53.374 130.323 53.6406C130.344 54.1944 130.339 54.7481 130.323 55.2993C130.318 55.512 130.369 55.5736 130.59 55.5736C131.79 55.5633 132.987 55.5736 134.187 55.5633C134.374 55.5633 134.458 55.5915 134.448 55.8069C134.44 55.9914 134.417 56.0683 134.202 56.0658C132.818 56.0555 131.436 56.053 130.052 56.0658C129.829 56.0658 129.811 55.9812 129.813 55.8017C129.821 54.9198 129.816 54.0405 129.816 53.1587V53.1561Z" fill="#010101"/>
<path d="M71.3066 53.1612C71.3066 52.2793 71.3118 51.4 71.3015 50.5182C71.3015 50.3233 71.3425 50.2592 71.5502 50.2618C72.8935 50.272 74.2343 50.2695 75.5776 50.2618C75.7596 50.2618 75.8468 50.2849 75.8493 50.5053C75.8493 50.7386 75.7391 50.7412 75.5673 50.7412C74.4086 50.7361 73.2524 50.7437 72.0937 50.7335C71.886 50.7335 71.8091 50.7796 71.8142 51.0027C71.8296 51.5359 71.8296 52.0691 71.8142 52.5998C71.8091 52.8074 71.8783 52.8536 72.0757 52.8536C73.1114 52.8433 74.1445 52.851 75.1802 52.8485C75.3443 52.8485 75.4571 52.8356 75.4597 53.0766C75.4622 53.3381 75.3187 53.292 75.17 53.292C74.1343 53.292 73.0986 53.2971 72.0655 53.2868C71.8604 53.2868 71.8091 53.3458 71.8142 53.5432C71.8271 54.1379 71.8296 54.7327 71.8142 55.3249C71.8091 55.5428 71.8886 55.571 72.0757 55.571C73.2755 55.5633 74.4727 55.571 75.6724 55.5633C75.8519 55.5633 75.9416 55.5787 75.9391 55.8017C75.9391 56.0222 75.8724 56.0658 75.6647 56.0658C74.3009 56.0555 72.9397 56.0529 71.5758 56.0658C71.3297 56.0683 71.2964 55.9888 71.299 55.7735C71.3118 54.9019 71.3041 54.0328 71.3041 53.1612H71.3066Z" fill="#010101"/>
<path d="M148.057 56.0276C147.632 56.1379 147.381 56.02 147.222 55.6226C147.065 55.2381 146.824 54.8868 146.632 54.5151C146.568 54.3921 146.496 54.3408 146.35 54.3434C145.232 54.3511 144.115 54.3511 142.997 54.3434C142.853 54.3434 142.776 54.3921 142.715 54.5177C142.523 54.8997 142.317 55.2791 142.117 55.6585C141.959 55.9559 141.69 56.0789 141.312 56.0276C141.692 55.3201 142.069 54.6202 142.443 53.9204C143.063 52.7693 143.684 51.6183 144.299 50.4621C144.384 50.3032 144.486 50.2467 144.661 50.2596C144.817 50.2698 144.935 50.2647 145.032 50.4416C146.014 52.2669 147.011 54.087 148.003 55.9072C148.021 55.9405 148.037 55.9764 148.062 56.0276H148.057ZM146.327 53.9076C145.768 52.8796 145.23 51.89 144.668 50.8594C144.117 51.8849 143.581 52.8847 143.033 53.9076H146.324H146.327Z" fill="#080808"/>
<path d="M87.5475 56.0283C88.273 54.6825 88.9882 53.3545 89.7035 52.0266C89.988 51.4959 90.2726 50.9653 90.5597 50.4372C90.6956 50.1885 91.116 50.1808 91.2493 50.4243C92.2517 52.2599 93.254 54.098 94.2538 55.9361C94.2667 55.9617 94.2718 55.9925 94.2795 56.0207C93.7539 56.1283 93.7411 56.1232 93.4976 55.6797C93.2925 55.3029 93.0823 54.9311 92.8849 54.5492C92.8105 54.4056 92.7285 54.3441 92.5567 54.3466C91.4621 54.3569 90.3649 54.3569 89.2702 54.3466C89.1036 54.3466 89.0139 54.3953 88.9395 54.544C88.7626 54.9004 88.5396 55.2362 88.3909 55.6028C88.232 56.0001 87.9935 56.1642 87.5449 56.0309L87.5475 56.0283ZM92.5644 53.9108C92.003 52.8803 91.4647 51.8882 90.9058 50.8653C90.3546 51.8933 89.8188 52.8905 89.2728 53.9108H92.5644Z" fill="#080808"/>
<path d="M108.065 54.7978C108.333 55.0678 108.323 55.3173 108.034 55.5463C106.778 56.5385 104.396 56.3718 103.373 55.2003C102.545 54.2517 102.43 53.1494 102.837 52.006C103.232 50.8986 104.137 50.3935 105.247 50.2166C106.134 50.0756 107.003 50.1346 107.816 50.5704C107.998 50.6678 108.159 50.7909 108.311 50.9319C108.418 51.0344 108.436 51.1139 108.331 51.2395C108.188 51.4113 108.124 51.5061 107.89 51.2805C107.252 50.6678 106.429 50.6012 105.593 50.6704C105.183 50.7037 104.788 50.8037 104.419 50.9985C103.504 51.4831 103.037 52.4675 103.199 53.5698C103.355 54.6311 104.112 55.4156 105.201 55.6181C105.986 55.7643 106.75 55.7104 107.465 55.3131C107.701 55.1823 107.885 54.9926 108.065 54.7952V54.7978Z" fill="#080808"/>
<path d="M160.642 50.2806C159.993 51.6085 159.357 52.9082 158.719 54.2105C158.445 54.7694 158.165 55.3257 157.896 55.8871C157.842 55.9974 157.796 56.0691 157.652 56.0666C157.524 56.064 157.453 56.0256 157.394 55.9102C156.473 54.0644 155.548 52.2212 154.625 50.3754C154.617 50.3575 154.62 50.337 154.617 50.3165C155.097 50.1857 155.153 50.2088 155.363 50.6318C156.084 52.0879 156.804 53.5414 157.524 54.9976C157.56 55.0693 157.604 55.136 157.663 55.2437C158.04 54.4618 158.401 53.7132 158.763 52.9646C159.127 52.2109 159.488 51.4572 159.849 50.701C159.995 50.3985 160.26 50.2592 160.644 50.2831L160.642 50.2806Z" fill="#080808"/>
<path d="M85.4672 53.4136C85.4672 52.624 85.4544 51.8344 85.4749 51.0474C85.48 50.7936 85.3954 50.75 85.1673 50.7551C84.5622 50.7705 83.9572 50.75 83.3548 50.7654C83.1497 50.7705 83.1164 50.6936 83.1266 50.5167C83.1343 50.3655 83.1138 50.2578 83.3394 50.2578C84.9288 50.2706 86.5157 50.2681 88.1051 50.2578C88.3076 50.2578 88.341 50.327 88.3358 50.5039C88.3307 50.668 88.323 50.768 88.1103 50.7628C87.5155 50.7475 86.9207 50.7757 86.3286 50.75C86.0312 50.7372 85.9876 50.8423 85.9876 51.1064C86.0004 52.665 85.9876 54.2211 86.0004 55.7798C86.0004 56.0131 85.9389 56.0643 85.7133 56.0695C85.4672 56.0746 85.4646 55.9669 85.4646 55.7798C85.4723 54.9902 85.4672 54.2006 85.4672 53.4136Z" fill="#080808"/>
<path d="M95.0313 53.1336C95.0313 52.2543 95.0415 51.3725 95.0236 50.4931C95.0185 50.2522 95.1338 50.2599 95.3005 50.2624C95.462 50.2624 95.5773 50.247 95.5748 50.4906C95.562 52.0672 95.5748 53.6438 95.5619 55.2204C95.5619 55.4845 95.6055 55.5793 95.9003 55.5742C97.0155 55.5537 98.1332 55.569 99.2484 55.5639C99.4278 55.5639 99.5176 55.5819 99.515 55.8023C99.515 56.0202 99.4509 56.0664 99.2407 56.0664C97.9307 56.0561 96.6181 56.0536 95.3082 56.0664C95.0672 56.069 95.0236 55.9997 95.0262 55.7767C95.039 54.8974 95.0313 54.0155 95.0313 53.1362V53.1336Z" fill="#080808"/>
<path d="M150.137 53.4446C150.137 54.2342 150.127 55.0237 150.144 55.8108C150.15 56.0517 150.05 56.0569 149.863 56.0671C149.639 56.0799 149.622 55.9825 149.622 55.8031C149.627 54.2162 149.622 52.6268 149.632 51.0399C149.632 50.8041 149.568 50.7502 149.342 50.7554C148.737 50.7707 148.132 50.7502 147.53 50.7682C147.307 50.7733 147.289 50.6836 147.284 50.5016C147.278 50.3119 147.332 50.2632 147.522 50.2657C149.101 50.2734 150.678 50.276 152.257 50.2657C152.462 50.2657 152.488 50.3401 152.485 50.5118C152.482 50.6759 152.477 50.7733 152.259 50.7682C151.665 50.7528 151.07 50.781 150.478 50.7554C150.18 50.7425 150.129 50.8477 150.137 51.1143C150.155 51.8936 150.142 52.6704 150.142 53.4497L150.137 53.4446Z" fill="#010101"/>
<path d="M153.292 53.1672C153.292 52.2776 153.303 51.3855 153.287 50.496C153.282 50.2652 153.382 50.2498 153.556 50.2601C153.71 50.2678 153.838 50.2268 153.836 50.4831C153.823 52.2623 153.823 54.044 153.836 55.8231C153.836 56.0461 153.749 56.0589 153.572 56.0641C153.38 56.0692 153.282 56.0461 153.287 55.8077C153.303 54.9284 153.292 54.0491 153.292 53.1672Z" fill="#080808"/>
<g clip-path="url(#clip1_6657_26845)">
<path d="M166.001 56.0566C164.545 56.0566 163.089 56.0515 161.635 56.0618C161.417 56.0618 161.371 56.0028 161.371 55.7926C161.381 54.0288 161.381 52.2677 161.371 50.5039C161.371 50.2937 161.435 50.2578 161.627 50.2578C162.981 50.2655 164.335 50.2629 165.686 50.2578C165.852 50.2578 165.945 50.2681 165.939 50.4808C165.934 50.6808 165.883 50.7398 165.68 50.7398C164.522 50.7321 163.363 50.7423 162.207 50.7295C161.956 50.7269 161.899 50.8064 161.907 51.0397C161.925 51.5627 161.92 52.0857 161.907 52.6086C161.902 52.7983 161.963 52.8496 162.15 52.8496C163.176 52.8419 164.201 52.847 165.227 52.8445C165.388 52.8445 165.532 52.806 165.532 53.0752C165.532 53.3392 165.386 53.288 165.24 53.288C164.214 53.288 163.189 53.2931 162.163 53.2854C161.974 53.2854 161.899 53.3187 161.904 53.5315C161.92 54.1263 161.917 54.721 161.904 55.3158C161.899 55.5132 161.95 55.5721 162.153 55.5696C163.435 55.5593 164.717 55.5644 165.996 55.5644V56.0566H166.001Z" fill="#080808"/>
<path d="M54.0334 34.3052C54.177 34.277 54.2462 34.1513 54.3385 34.0591C65.5952 22.8075 76.8519 11.5533 88.101 0.291475C88.3291 0.0633156 88.4317 0.0940786 88.6393 0.301729C94.251 5.92368 99.8704 11.5379 105.487 17.1548C105.572 17.2394 105.636 17.3547 105.767 17.3829C105.772 17.4726 105.836 17.5265 105.895 17.5829C106.759 18.4468 107.623 19.3107 108.487 20.1747C108.558 20.2464 108.628 20.3233 108.74 20.3285C108.735 20.4643 108.853 20.5182 108.928 20.5925C109.94 21.6103 110.958 22.6229 111.971 23.6406C112.045 23.7175 112.153 23.7739 112.178 23.9047C111.619 23.979 111.066 24.0457 110.512 24.1226C109.415 24.279 108.343 24.5481 107.305 24.9327C107.087 25.0122 106.961 24.9711 106.802 24.8122C100.747 18.7493 94.6842 12.6915 88.6291 6.62354C88.4009 6.39538 88.3009 6.42358 88.0907 6.63379C74.8882 19.844 61.6781 33.0516 48.4705 46.2566C48.3987 46.3284 48.3218 46.3925 48.2449 46.4617C47.6757 45.3106 47.3681 44.0955 47.322 42.8111C47.2989 42.1959 47.3168 41.5832 47.3886 40.973C48.5807 39.8348 49.742 38.6633 50.8879 37.4789C50.9212 37.4558 50.9597 37.4379 50.9879 37.4097C51.9672 36.4329 52.9439 35.4562 53.9206 34.4795C53.9719 34.4282 54.0232 34.3795 54.0309 34.3L54.0334 34.3052Z" fill="#015387"/>
<path d="M54.0327 34.3054C54.025 34.3823 53.9738 34.4336 53.9225 34.4849C52.9458 35.4616 51.9665 36.4383 50.9898 37.4151C50.9616 37.4433 50.9231 37.4612 50.8898 37.4843C50.3796 36.9844 49.8669 36.4845 49.3568 35.9846C49.3593 35.9128 49.3286 35.8718 49.2516 35.8795C49.185 35.8026 49.1209 35.7231 49.0491 35.6513C46.0625 32.6647 43.0734 29.6807 40.0945 26.689C39.9048 26.4993 39.8176 26.4993 39.6279 26.689C28.6071 37.7176 17.5811 48.741 6.56022 59.767C6.3859 59.9413 6.21926 60.0131 5.97316 60.0105C4.09661 60.0003 2.22007 60.0054 0.346084 60.0054H0.0538353L0 59.9234C0.087162 59.8567 0.182015 59.8003 0.256359 59.7234C13.3845 46.6004 26.5126 33.4748 39.6382 20.3467C39.7792 20.2057 39.8612 20.116 40.0586 20.3134C44.691 24.9586 49.3311 29.5961 53.9712 34.2336C53.9943 34.2567 54.0122 34.2798 54.0327 34.3054Z" fill="#123C63"/>
<path d="M49.2518 35.8804C49.3287 35.8727 49.3595 35.9112 49.3569 35.9855C48.3545 37.5134 47.6675 39.1669 47.3906 40.9794C47.3188 41.5895 47.3035 42.2022 47.324 42.8175C47.3701 44.0993 47.6777 45.317 48.2469 46.468C48.634 47.3704 49.1877 48.1677 49.8107 48.9163C51.4026 50.8236 53.3792 52.254 55.53 53.4589C58.8806 55.338 62.4722 56.6121 66.151 57.6632C69.4785 58.6143 72.8547 59.3321 76.2592 59.9371C76.2951 59.9448 76.331 59.9551 76.3643 60.0063C76.2541 60.0063 76.1438 60.0063 76.0336 60.0063C65.5178 60.0063 55.0019 60.0063 44.4861 60.0115C44.2451 60.0115 44.0939 59.932 43.9375 59.7577C42.4711 58.1247 41.4098 56.2635 40.7561 54.169C40.7407 54.1229 40.7125 54.0793 40.6894 54.0357C40.5843 53.4436 40.4151 52.8667 40.3382 52.2694C40.2126 51.2619 40.2126 50.2544 40.2869 49.2418C40.3177 48.824 40.4433 48.4189 40.4279 47.9985C40.4279 47.9985 40.4254 48.0036 40.4254 48.0011C40.4459 47.9805 40.4689 47.9575 40.4894 47.937C41.1509 44.8786 42.73 42.315 44.7655 39.9975C46.0601 38.5235 47.506 37.2109 49.039 35.9881C49.1005 35.9394 49.1544 35.8676 49.2492 35.8804H49.2518Z" fill="#939598"/>
<path d="M108.741 20.332C108.629 20.3243 108.559 20.2499 108.488 20.1782C107.624 19.3142 106.76 18.4503 105.896 17.5864C105.839 17.53 105.775 17.4761 105.768 17.3864C107.565 15.3663 109.362 13.3462 111.161 11.3261C114.433 7.65503 117.704 3.98654 120.97 0.310353C121.136 0.123211 121.208 0.100139 121.39 0.302663C126.82 6.39887 132.344 12.4079 137.82 18.4606C139.64 20.473 141.468 22.4803 143.291 24.4901C143.352 24.5568 143.411 24.6285 143.475 24.7003C143.386 24.7952 143.278 24.7465 143.186 24.7465C141.514 24.749 139.843 24.7465 138.174 24.7542C137.959 24.7542 137.82 24.6901 137.677 24.5311C133.659 20.1141 129.637 15.6996 125.617 11.2851C124.231 9.7623 122.846 8.24209 121.462 6.71932C121.372 6.62191 121.282 6.52705 121.182 6.42195C120.095 7.64221 119.019 8.84966 117.942 10.0571C114.925 13.4436 111.905 16.8327 108.885 20.2192C108.846 20.2628 108.79 20.2935 108.744 20.3294L108.741 20.332Z" fill="#123C63"/>
<path d="M159.725 43.6436V43.2411C159.725 38.137 159.728 33.0329 159.717 27.9288C159.717 27.5956 159.815 27.5289 160.122 27.5417C160.697 27.5674 161.271 27.5622 161.845 27.5417C162.107 27.5315 162.189 27.5904 162.186 27.8724C162.173 30.8949 162.178 33.9199 162.178 36.9424C162.178 40.3135 162.176 43.6872 162.186 47.0583C162.186 47.3275 162.127 47.4018 161.853 47.3916C161.237 47.3685 160.622 47.3788 160.007 47.389C159.82 47.3916 159.687 47.3454 159.558 47.1993C156.646 43.8974 153.726 40.6032 150.809 37.3039C149.173 35.4555 147.54 33.6072 145.905 31.7588C145.874 31.7229 145.841 31.6896 145.764 31.6076V31.9844C145.764 37.0065 145.761 42.0286 145.771 47.0506C145.771 47.3377 145.694 47.4018 145.423 47.3916C144.807 47.3711 144.192 47.3711 143.577 47.3916C143.338 47.3993 143.297 47.3275 143.297 47.1045C143.305 42.8515 143.303 38.5985 143.303 34.3429C143.303 32.169 143.308 29.9976 143.295 27.8237C143.295 27.5853 143.359 27.5366 143.585 27.5392C144.282 27.5545 144.979 27.5494 145.676 27.5392C145.835 27.5392 145.938 27.5904 146.041 27.7109C150.324 32.6997 154.608 37.6858 158.894 42.672C159.156 42.9745 159.415 43.277 159.728 43.6385L159.725 43.6436Z" fill="#010101"/>
<path d="M120.435 42.536C120.904 43.0693 121.343 43.5948 121.815 44.0921C122.012 44.3023 121.966 44.4254 121.799 44.61C120.999 45.5021 120.043 46.1686 118.959 46.666C116.805 47.6555 114.534 47.9452 112.191 47.776C110.268 47.6376 108.44 47.1582 106.769 46.1738C104.016 44.551 102.467 42.1284 102.077 38.9701C101.829 36.9756 102.013 35.0222 102.824 33.1635C103.903 30.6846 105.782 29.031 108.297 28.1466C111.817 26.9084 115.372 26.8238 118.905 28.1287C120.069 28.5593 121.117 29.1874 121.938 30.1488C122.091 30.3282 122.109 30.4461 121.945 30.6333C121.507 31.1332 121.092 31.6562 120.666 32.1663C120.612 32.2304 120.574 32.374 120.448 32.2125C119.323 30.7589 117.756 30.0821 116.011 29.7694C113.755 29.3669 111.522 29.4669 109.358 30.2821C106.374 31.4075 104.592 33.9839 104.539 37.173C104.505 39.1162 104.949 40.9081 106.195 42.4412C107.341 43.8537 108.845 44.7023 110.594 45.1176C112.975 45.6815 115.326 45.5918 117.613 44.6766C118.687 44.2459 119.597 43.582 120.312 42.6642C120.343 42.6258 120.382 42.5899 120.435 42.5335V42.536Z" fill="#010101"/>
<path d="M68.3379 47.3859C68.9839 46.0913 69.6069 44.8403 70.2298 43.5892C72.7268 38.5774 75.2211 33.5682 77.7181 28.5564C77.8821 28.2282 77.9744 27.7924 78.2385 27.6053C78.5179 27.4079 78.9717 27.5771 79.3459 27.5437C79.6305 27.5181 79.7664 27.6232 79.8945 27.8847C81.5275 31.2481 83.1785 34.6013 84.8218 37.957C86.3343 41.0487 87.8442 44.1404 89.3567 47.2347C89.3747 47.2705 89.3901 47.3039 89.4285 47.3859C88.8081 47.3859 88.2211 47.3859 87.634 47.3859C87.3084 47.3859 86.9111 47.4859 86.6752 47.3372C86.4394 47.1885 86.3599 46.786 86.2189 46.4912C83.8271 41.4666 81.4378 36.4394 79.0306 31.3763C78.7512 31.9403 78.482 32.4761 78.2205 33.017C76.0517 37.4597 73.8855 41.9024 71.7193 46.3451C71.6116 46.5656 71.4732 46.7758 71.4014 47.0065C71.3014 47.3295 71.1143 47.4064 70.7938 47.3962C69.994 47.3705 69.1941 47.3885 68.3404 47.3885L68.3379 47.3859Z" fill="#010101"/>
<path d="M121.491 47.383C122.137 46.0859 122.763 44.8348 123.386 43.5838C125.885 38.5643 128.385 33.5448 130.887 28.5227C131.046 28.2023 131.136 27.7793 131.395 27.5998C131.669 27.4101 132.11 27.5793 132.471 27.5383C132.789 27.5024 132.93 27.6332 133.063 27.91C134.681 31.2453 136.317 34.5728 137.947 37.9029C139.465 41.0023 140.982 44.1042 142.497 47.2062C142.518 47.2497 142.536 47.2959 142.569 47.3805C141.831 47.3805 141.118 47.3395 140.411 47.3959C139.913 47.4343 139.716 47.2344 139.519 46.8165C137.088 41.6739 134.64 36.5416 132.179 31.3734C131.905 31.9272 131.641 32.4553 131.382 32.9859C129.072 37.7234 126.762 42.461 124.455 47.1985C124.396 47.319 124.337 47.3882 124.183 47.3856C123.301 47.3779 122.419 47.3805 121.486 47.3805L121.491 47.383Z" fill="#010101"/>
<path d="M102.782 47.3849H102.416C98.3577 47.3849 94.2995 47.3849 90.2414 47.39C89.9876 47.39 89.9004 47.3516 89.9004 47.0644C89.9106 40.6708 89.9106 34.2773 89.9004 27.8837C89.9004 27.6273 89.9414 27.5273 90.2285 27.5401C90.8515 27.5658 91.4796 27.5607 92.1025 27.5401C92.3512 27.5325 92.4255 27.5889 92.4255 27.8529C92.4127 30.0038 92.4178 32.1572 92.4178 34.308C92.4178 37.7817 92.423 41.2553 92.4101 44.729C92.4101 45.011 92.4922 45.052 92.7485 45.052C95.3403 45.0418 97.9347 45.0494 100.526 45.0418C100.724 45.0418 100.839 45.0956 100.949 45.2622C101.457 46.0236 102.057 46.7081 102.78 47.3849H102.782Z" fill="#010101"/>
<path d="M40.4329 47.9961C40.4483 48.4165 40.3227 48.8216 40.2919 49.2394C40.215 50.2521 40.215 51.257 40.3432 52.267C40.4175 52.8643 40.5893 53.4412 40.6944 54.0333C38.7461 55.9842 36.7977 57.9326 34.852 59.8835C34.7751 59.9604 34.7007 60.0065 34.5879 60.0065C32.5499 60.0039 30.5118 60.0065 28.4763 60.0065C28.4481 59.8988 28.5327 59.8706 28.5763 59.8271C32.4807 55.9201 36.3876 52.0158 40.2945 48.1115C40.3355 48.0704 40.3893 48.0371 40.4355 47.9987L40.4329 47.9961Z" fill="#015387"/>
<path d="M64.5176 53.1433C64.5176 52.2614 64.5227 51.3795 64.5125 50.5002C64.5125 50.3105 64.5612 50.2592 64.7509 50.2618C65.6532 50.2721 66.5556 50.2541 67.4555 50.2695C68.8629 50.2951 69.8421 51.0078 70.1754 52.2255C70.5497 53.5817 70.0857 54.907 68.9859 55.5966C68.4988 55.9017 67.9579 56.053 67.3837 56.0581C66.5121 56.0683 65.6404 56.053 64.7714 56.0658C64.5432 56.0683 64.5073 55.9914 64.5099 55.7863C64.5201 54.9045 64.515 54.0226 64.515 53.1433H64.5176ZM65.0534 53.1689C65.0534 53.8867 65.0611 54.602 65.0482 55.3198C65.0431 55.5274 65.1098 55.5736 65.3072 55.571C65.984 55.5582 66.6582 55.571 67.335 55.5633C67.781 55.5582 68.2066 55.4479 68.5962 55.23C69.514 54.725 69.937 53.6688 69.6832 52.5306C69.4499 51.4821 68.6885 50.8284 67.5683 50.7745C66.8017 50.7386 66.0327 50.7668 65.2636 50.754C65.0764 50.7515 65.0482 50.8232 65.0508 50.9873C65.0585 51.7154 65.0534 52.4409 65.0534 53.1689Z" fill="#080808"/>
<path d="M77.4607 51.1059C77.4607 52.7132 77.4581 54.2386 77.4658 55.7665C77.4658 55.9767 77.4427 56.069 77.1941 56.069C76.9403 56.069 76.9223 55.9716 76.9223 55.7665C76.93 54.0642 76.9223 52.3646 76.93 50.6624C76.93 50.5342 76.8352 50.3163 76.9967 50.2855C77.2043 50.2445 77.4479 50.183 77.6427 50.4137C78.3631 51.2648 79.1014 52.1031 79.832 52.9465C80.4832 53.6951 81.1343 54.4462 81.7931 55.2025C81.888 55.1128 81.8419 55.0051 81.8419 54.9154C81.8444 53.4592 81.8495 52.0057 81.8393 50.5496C81.8393 50.3291 81.8777 50.2548 82.1187 50.2522C82.3699 50.2522 82.3648 50.3676 82.3648 50.5496C82.3597 52.2723 82.3648 53.9925 82.3597 55.7152C82.3597 55.828 82.4315 56.0126 82.2956 56.0382C82.1136 56.0715 81.9034 56.1331 81.7316 55.9357C81.0138 55.1076 80.2832 54.2924 79.5551 53.4721C78.8732 52.7004 78.1887 51.9313 77.4607 51.1059Z" fill="#080808"/>
<path d="M119.704 56.1959C118.604 56.1908 117.638 55.8652 116.971 54.9449C115.666 53.1452 116.761 50.5765 118.976 50.2202C120.119 50.0356 121.196 50.2048 122.065 51.0252C122.97 51.8763 123.193 52.953 122.865 54.1245C122.542 55.2781 121.688 55.8729 120.56 56.1216C120.278 56.1831 119.994 56.2062 119.704 56.1959ZM119.837 55.7114C119.95 55.7037 120.063 55.696 120.173 55.6858C121.845 55.5166 122.85 53.9835 122.309 52.3941C121.932 51.2866 121.081 50.7611 119.963 50.6739C117.897 50.5099 116.707 52.0429 117.025 53.7605C117.248 54.9654 118.451 55.8062 119.837 55.7114Z" fill="#080808"/>
<path d="M112.314 56.1961C111.099 56.1756 110.053 55.7911 109.419 54.6836C108.563 53.1865 109.104 50.6383 111.619 50.2153C112.693 50.0358 113.713 50.1999 114.562 50.9254C115.526 51.7509 115.803 52.8276 115.5 54.035C115.2 55.2399 114.334 55.8577 113.17 56.1192C112.888 56.1833 112.603 56.1987 112.314 56.1961ZM112.355 55.7193C112.465 55.7116 112.619 55.709 112.773 55.6885C113.711 55.5578 114.485 55.1553 114.857 54.2401C115.236 53.3095 115.136 52.3943 114.488 51.6124C113.79 50.7741 112.844 50.5614 111.798 50.7024C110.229 50.9151 109.25 52.402 109.681 53.9248C109.994 55.0323 110.999 55.7167 112.357 55.7167L112.355 55.7193Z" fill="#080808"/>
<path d="M138.929 53.8056C139.654 54.5644 140.347 55.2873 141.064 56.0384C140.7 56.082 140.413 56.1 140.149 55.7846C139.647 55.1925 139.091 54.6464 138.562 54.0747C138.46 53.9645 138.362 53.9004 138.198 53.903C137.532 53.9132 136.865 53.9158 136.201 53.903C135.999 53.8978 135.971 53.9671 135.973 54.1465C135.983 54.7208 135.968 55.295 135.983 55.8667C135.989 56.0743 135.883 56.0795 135.742 56.0589C135.617 56.041 135.427 56.1538 135.43 55.8718C135.437 54.0696 135.437 52.2674 135.43 50.4626C135.43 50.255 135.532 50.2627 135.676 50.2627C136.67 50.2652 137.663 50.2576 138.657 50.2652C139.708 50.2755 140.342 50.7985 140.459 51.7316C140.59 52.7699 140.098 53.4979 139.085 53.7697C139.047 53.7799 139.008 53.785 138.934 53.8004L138.929 53.8056ZM137.445 50.7626C137.014 50.7626 136.583 50.7651 136.155 50.76C136.03 50.76 135.976 50.7857 135.976 50.9266C135.981 51.7162 135.978 52.5033 135.976 53.2928C135.976 53.3903 135.976 53.4723 136.114 53.4697C137.004 53.4441 137.896 53.5338 138.783 53.421C139.506 53.3287 139.998 52.7288 139.96 52.0418C139.916 51.2497 139.452 50.7959 138.639 50.7677C138.239 50.7549 137.839 50.7677 137.442 50.7677L137.445 50.7626Z" fill="#080808"/>
<path d="M124.028 53.1626C124.028 52.2807 124.033 51.4014 124.025 50.5195C124.025 50.3375 124.043 50.2529 124.264 50.258C125.176 50.2734 126.087 50.2657 126.999 50.2632C127.227 50.2632 127.448 50.2939 127.666 50.3503C128.514 50.5657 128.945 51.2707 128.868 52.2986C128.786 53.4036 128.189 53.9906 127.076 54.0342C126.33 54.0624 125.582 54.0598 124.833 54.0547C124.636 54.0547 124.571 54.1034 124.577 54.3059C124.592 54.8187 124.564 55.3314 124.589 55.8415C124.602 56.1081 124.443 56.0517 124.297 56.0569C124.141 56.062 124.013 56.0876 124.018 55.8364C124.036 54.9443 124.025 54.0547 124.025 53.1626H124.028ZM124.584 52.1628C124.584 52.573 124.584 52.9806 124.584 53.3907C124.584 53.4984 124.574 53.5933 124.736 53.5881C125.574 53.5625 126.415 53.6471 127.248 53.5317C127.694 53.4702 128.055 53.2574 128.243 52.8165C128.709 51.7167 128.114 50.7784 126.927 50.7631C126.222 50.7528 125.515 50.7708 124.81 50.7554C124.61 50.7502 124.574 50.8195 124.579 50.9989C124.592 51.386 124.584 51.7757 124.584 52.1653V52.1628Z" fill="#080808"/>
<path d="M129.816 53.1561C129.816 52.2742 129.823 51.3949 129.811 50.513C129.808 50.3105 129.864 50.2592 130.064 50.2618C131.408 50.2721 132.749 50.2695 134.092 50.2618C134.284 50.2618 134.353 50.2977 134.358 50.5105C134.364 50.7515 134.238 50.7412 134.071 50.7412C132.923 50.7386 131.777 50.7463 130.628 50.7335C130.387 50.7309 130.313 50.795 130.323 51.0386C130.344 51.541 130.346 52.0435 130.323 52.5434C130.311 52.81 130.408 52.8587 130.651 52.8562C131.656 52.8433 132.659 52.851 133.664 52.851C133.825 52.851 133.971 52.8126 133.971 53.0818C133.971 53.3458 133.82 53.292 133.677 53.292C132.672 53.292 131.667 53.3048 130.664 53.2843C130.369 53.2792 130.313 53.374 130.323 53.6406C130.344 54.1944 130.339 54.7481 130.323 55.2993C130.318 55.512 130.369 55.5736 130.59 55.5736C131.79 55.5633 132.987 55.5736 134.187 55.5633C134.374 55.5633 134.458 55.5915 134.448 55.8069C134.44 55.9914 134.417 56.0683 134.202 56.0658C132.818 56.0555 131.436 56.053 130.052 56.0658C129.829 56.0658 129.811 55.9812 129.813 55.8017C129.821 54.9198 129.816 54.0405 129.816 53.1587V53.1561Z" fill="#010101"/>
<path d="M71.3066 53.1612C71.3066 52.2793 71.3118 51.4 71.3015 50.5182C71.3015 50.3233 71.3425 50.2592 71.5502 50.2618C72.8935 50.272 74.2343 50.2695 75.5776 50.2618C75.7596 50.2618 75.8468 50.2849 75.8493 50.5053C75.8493 50.7386 75.7391 50.7412 75.5673 50.7412C74.4086 50.7361 73.2524 50.7437 72.0937 50.7335C71.886 50.7335 71.8091 50.7796 71.8142 51.0027C71.8296 51.5359 71.8296 52.0691 71.8142 52.5998C71.8091 52.8074 71.8783 52.8536 72.0757 52.8536C73.1114 52.8433 74.1445 52.851 75.1802 52.8485C75.3443 52.8485 75.4571 52.8356 75.4597 53.0766C75.4622 53.3381 75.3187 53.292 75.17 53.292C74.1343 53.292 73.0986 53.2971 72.0655 53.2868C71.8604 53.2868 71.8091 53.3458 71.8142 53.5432C71.8271 54.1379 71.8296 54.7327 71.8142 55.3249C71.8091 55.5428 71.8886 55.571 72.0757 55.571C73.2755 55.5633 74.4727 55.571 75.6724 55.5633C75.8519 55.5633 75.9416 55.5787 75.9391 55.8017C75.9391 56.0222 75.8724 56.0658 75.6647 56.0658C74.3009 56.0555 72.9397 56.0529 71.5758 56.0658C71.3297 56.0683 71.2964 55.9888 71.299 55.7735C71.3118 54.9019 71.3041 54.0328 71.3041 53.1612H71.3066Z" fill="#010101"/>
<path d="M148.057 56.0276C147.632 56.1379 147.381 56.02 147.222 55.6226C147.065 55.2381 146.824 54.8868 146.632 54.5151C146.568 54.3921 146.496 54.3408 146.35 54.3434C145.232 54.3511 144.115 54.3511 142.997 54.3434C142.853 54.3434 142.776 54.3921 142.715 54.5177C142.523 54.8997 142.317 55.2791 142.117 55.6585C141.959 55.9559 141.69 56.0789 141.312 56.0276C141.692 55.3201 142.069 54.6202 142.443 53.9204C143.063 52.7693 143.684 51.6183 144.299 50.4621C144.384 50.3032 144.486 50.2467 144.661 50.2596C144.817 50.2698 144.935 50.2647 145.032 50.4416C146.014 52.2669 147.011 54.087 148.003 55.9072C148.021 55.9405 148.037 55.9764 148.062 56.0276H148.057ZM146.327 53.9076C145.768 52.8796 145.23 51.89 144.668 50.8594C144.117 51.8849 143.581 52.8847 143.033 53.9076H146.324H146.327Z" fill="#080808"/>
<path d="M87.5475 56.0283C88.273 54.6825 88.9882 53.3545 89.7035 52.0266C89.988 51.4959 90.2726 50.9653 90.5597 50.4372C90.6956 50.1885 91.116 50.1808 91.2493 50.4243C92.2517 52.2599 93.254 54.098 94.2538 55.9361C94.2667 55.9617 94.2718 55.9925 94.2795 56.0207C93.7539 56.1283 93.7411 56.1232 93.4976 55.6797C93.2925 55.3029 93.0823 54.9311 92.8849 54.5492C92.8105 54.4056 92.7285 54.3441 92.5567 54.3466C91.4621 54.3569 90.3649 54.3569 89.2702 54.3466C89.1036 54.3466 89.0139 54.3953 88.9395 54.544C88.7626 54.9004 88.5396 55.2362 88.3909 55.6028C88.232 56.0001 87.9935 56.1642 87.5449 56.0309L87.5475 56.0283ZM92.5644 53.9108C92.003 52.8803 91.4647 51.8882 90.9058 50.8653C90.3546 51.8933 89.8188 52.8905 89.2728 53.9108H92.5644Z" fill="#080808"/>
<path d="M108.065 54.7978C108.333 55.0678 108.323 55.3173 108.034 55.5463C106.778 56.5385 104.396 56.3718 103.373 55.2003C102.545 54.2517 102.43 53.1494 102.837 52.006C103.232 50.8986 104.137 50.3935 105.247 50.2166C106.134 50.0756 107.003 50.1346 107.816 50.5704C107.998 50.6678 108.159 50.7909 108.311 50.9319C108.418 51.0344 108.436 51.1139 108.331 51.2395C108.188 51.4113 108.124 51.5061 107.89 51.2805C107.252 50.6678 106.429 50.6012 105.593 50.6704C105.183 50.7037 104.788 50.8037 104.419 50.9985C103.504 51.4831 103.037 52.4675 103.199 53.5698C103.355 54.6311 104.112 55.4156 105.201 55.6181C105.986 55.7643 106.75 55.7104 107.465 55.3131C107.701 55.1823 107.885 54.9926 108.065 54.7952V54.7978Z" fill="#080808"/>
<path d="M160.642 50.2806C159.993 51.6085 159.357 52.9082 158.719 54.2105C158.445 54.7694 158.165 55.3257 157.896 55.8871C157.842 55.9974 157.796 56.0691 157.652 56.0666C157.524 56.064 157.453 56.0256 157.394 55.9102C156.473 54.0644 155.548 52.2212 154.625 50.3754C154.617 50.3575 154.62 50.337 154.617 50.3165C155.097 50.1857 155.153 50.2088 155.363 50.6318C156.084 52.0879 156.804 53.5414 157.524 54.9976C157.56 55.0693 157.604 55.136 157.663 55.2437C158.04 54.4618 158.401 53.7132 158.763 52.9646C159.127 52.2109 159.488 51.4572 159.849 50.701C159.995 50.3985 160.26 50.2592 160.644 50.2831L160.642 50.2806Z" fill="#080808"/>
<path d="M85.4672 53.4136C85.4672 52.624 85.4544 51.8344 85.4749 51.0474C85.48 50.7936 85.3954 50.75 85.1673 50.7551C84.5622 50.7705 83.9572 50.75 83.3548 50.7654C83.1497 50.7705 83.1164 50.6936 83.1266 50.5167C83.1343 50.3655 83.1138 50.2578 83.3394 50.2578C84.9288 50.2706 86.5157 50.2681 88.1051 50.2578C88.3076 50.2578 88.341 50.327 88.3358 50.5039C88.3307 50.668 88.323 50.768 88.1103 50.7628C87.5155 50.7475 86.9207 50.7757 86.3286 50.75C86.0312 50.7372 85.9876 50.8423 85.9876 51.1064C86.0004 52.665 85.9876 54.2211 86.0004 55.7798C86.0004 56.0131 85.9389 56.0643 85.7133 56.0695C85.4672 56.0746 85.4646 55.9669 85.4646 55.7798C85.4723 54.9902 85.4672 54.2006 85.4672 53.4136Z" fill="#080808"/>
<path d="M95.0313 53.1336C95.0313 52.2543 95.0415 51.3725 95.0236 50.4931C95.0185 50.2522 95.1338 50.2599 95.3005 50.2624C95.462 50.2624 95.5773 50.247 95.5748 50.4906C95.562 52.0672 95.5748 53.6438 95.5619 55.2204C95.5619 55.4845 95.6055 55.5793 95.9003 55.5742C97.0155 55.5537 98.1332 55.569 99.2484 55.5639C99.4278 55.5639 99.5176 55.5819 99.515 55.8023C99.515 56.0202 99.4509 56.0664 99.2407 56.0664C97.9307 56.0561 96.6181 56.0536 95.3082 56.0664C95.0672 56.069 95.0236 55.9997 95.0262 55.7767C95.039 54.8974 95.0313 54.0155 95.0313 53.1362V53.1336Z" fill="#080808"/>
<path d="M150.137 53.4446C150.137 54.2342 150.127 55.0237 150.144 55.8108C150.15 56.0517 150.05 56.0569 149.863 56.0671C149.639 56.0799 149.622 55.9825 149.622 55.8031C149.627 54.2162 149.622 52.6268 149.632 51.0399C149.632 50.8041 149.568 50.7502 149.342 50.7554C148.737 50.7707 148.132 50.7502 147.53 50.7682C147.307 50.7733 147.289 50.6836 147.284 50.5016C147.278 50.3119 147.332 50.2632 147.522 50.2657C149.101 50.2734 150.678 50.276 152.257 50.2657C152.462 50.2657 152.488 50.3401 152.485 50.5118C152.482 50.6759 152.477 50.7733 152.259 50.7682C151.665 50.7528 151.07 50.781 150.478 50.7554C150.18 50.7425 150.129 50.8477 150.137 51.1143C150.155 51.8936 150.142 52.6704 150.142 53.4497L150.137 53.4446Z" fill="#010101"/>
<path d="M153.292 53.1672C153.292 52.2776 153.303 51.3855 153.287 50.496C153.282 50.2652 153.382 50.2498 153.556 50.2601C153.71 50.2678 153.838 50.2268 153.836 50.4831C153.823 52.2623 153.823 54.044 153.836 55.8231C153.836 56.0461 153.749 56.0589 153.572 56.0641C153.38 56.0692 153.282 56.0461 153.287 55.8077C153.303 54.9284 153.292 54.0491 153.292 53.1672Z" fill="#080808"/>
</g>
</g>
<defs>
<clipPath id="clip0_6657_26845">
<rect width="166" height="59.8777" fill="white" transform="translate(0 0.132812)"/>
</clipPath>
<clipPath id="clip1_6657_26845">
<rect width="166" height="59.8777" fill="white" transform="translate(0 0.132812)"/>
</clipPath>
</defs>
</svg>
